<svg width="19" height="19" viewBox="0 0 19 19" fill="none" xmlns="http://www.w3.org/2000/svg">
<path d="M17.6258 12.9766C17.907 13.1172 18.118 13.4336 18.118 13.7852C18.118 13.8203 18.118 13.8906 18.118 13.9609L17.2742 17.6172C17.1688 18.0039 16.8523 18.25 16.4656 18.25C7.43047 18.25 0.153126 10.9727 0.153126 1.9375C0.153126 1.55078 0.39922 1.23438 0.785938 1.12891L4.44219 0.285156C4.5125 0.285156 4.58281 0.25 4.61797 0.25C4.96953 0.25 5.28594 0.460938 5.42656 0.777344L7.11406 4.71484C7.14922 4.82031 7.18438 4.92578 7.18438 5.03125C7.18438 5.3125 7.04375 5.55859 6.86797 5.69922L4.72344 7.45703C6.02422 10.1992 8.20391 12.3789 10.9461 13.6797L12.7039 11.5352C12.8445 11.3594 13.0906 11.2188 13.3367 11.2188C13.4773 11.2188 13.5828 11.2539 13.6883 11.2891L17.6258 12.9766Z" fill="white"/>
</svg>
