<svg width="13" height="19" viewBox="0 0 13 19" fill="none" xmlns="http://www.w3.org/2000/svg">
<path d="M6.52969 0.25C9.48281 0.25 12.682 2.60547 12.682 5.66406C12.682 9.74219 8.2875 9.8125 8.2875 11.3242V11.5C8.2875 11.9922 7.90078 12.3438 7.44375 12.3438H4.87734C4.42031 12.3438 4.03359 11.9922 4.03359 11.5V11.1836C4.03359 9.00391 5.68594 8.125 6.95156 7.42188C8.00625 6.82422 8.67422 6.4375 8.67422 5.62891C8.67422 4.57422 7.33828 3.90625 6.24844 3.90625C4.87734 3.90625 4.20937 4.53906 3.33047 5.62891C3.04922 5.98047 2.52187 6.05078 2.17031 5.76953L0.658594 4.60938C0.271875 4.36328 0.201562 3.83594 0.447656 3.48438C1.88906 1.41016 3.71719 0.25 6.52969 0.25ZM6.17812 13.3984C7.51406 13.3984 8.60391 14.4883 8.60391 15.8242C8.60391 17.1602 7.51406 18.25 6.17812 18.25C4.80703 18.25 3.71719 17.1602 3.71719 15.8242C3.71719 14.4883 4.80703 13.3984 6.17812 13.3984Z" fill="white"/>
</svg>
