<svg width="14" height="19" viewBox="0 0 14 19" fill="none" xmlns="http://www.w3.org/2000/svg">
<path d="M6.475 17.8984C1.34219 10.5156 0.428125 9.74219 0.428125 7C0.428125 3.27344 3.41641 0.25 7.17812 0.25C10.9047 0.25 13.9281 3.27344 13.9281 7C13.9281 9.74219 12.9789 10.5156 7.84609 17.8984C7.52969 18.3906 6.79141 18.3906 6.475 17.8984ZM7.17812 9.8125C8.725 9.8125 9.99062 8.58203 9.99062 7C9.99062 5.45312 8.725 4.1875 7.17812 4.1875C5.59609 4.1875 4.36562 5.45312 4.36562 7C4.36562 8.58203 5.59609 9.8125 7.17812 9.8125Z" fill="white"/>
</svg>
