<svg width="30" height="24" viewBox="0 0 30 24" fill="none" xmlns="http://www.w3.org/2000/svg">
<path d="M1.66675 7.41667C1.66675 4.5 3.33341 3.25 5.83341 3.25H14.1667C16.6667 3.25 18.3334 4.5 18.3334 7.41667V13.25C18.3334 16.1667 16.6667 17.4167 14.1667 17.4167H5.83341" stroke="#228B22" stroke-width="1.5" stroke-miterlimit="10" stroke-linecap="round" stroke-linejoin="round"/>
<path d="M14.1666 7.83325L11.5582 9.91659C10.6999 10.5999 9.29158 10.5999 8.43325 9.91659L5.83325 7.83325" stroke="#228B22" stroke-width="1.5" stroke-miterlimit="10" stroke-linecap="round" stroke-linejoin="round"/>
<path fill-rule="evenodd" clip-rule="evenodd" d="M0.91675 14.0833C0.91675 13.6691 1.25254 13.3333 1.66675 13.3333H6.66675C7.08096 13.3333 7.41675 13.6691 7.41675 14.0833C7.41675 14.4975 7.08096 14.8333 6.66675 14.8333H1.66675C1.25254 14.8333 0.91675 14.4975 0.91675 14.0833Z" fill="#228B22"/>
<path fill-rule="evenodd" clip-rule="evenodd" d="M0.91675 10.75C0.91675 10.3358 1.25254 10 1.66675 10H4.16675C4.58096 10 4.91675 10.3358 4.91675 10.75C4.91675 11.1642 4.58096 11.5 4.16675 11.5H1.66675C1.25254 11.5 0.91675 11.1642 0.91675 10.75Z" fill="#228B22"/>
</svg>
