<svg width="30" height="24" viewBox="0 0 30 24" fill="none" xmlns="http://www.w3.org/2000/svg">
<path d="M18.3084 15.6083C18.3084 15.9083 18.2417 16.2167 18.1001 16.5167C17.9584 16.8167 17.7751 17.1 17.5334 17.3667C17.1251 17.8167 16.6751 18.1417 16.1667 18.35C15.6667 18.5583 15.1251 18.6667 14.5417 18.6667C13.6917 18.6667 12.7834 18.4667 11.8251 18.0583C10.8667 17.65 9.90842 17.1 8.95842 16.4083C8.00008 15.7083 7.09175 14.9333 6.22508 14.075C5.36675 13.2083 4.59175 12.3 3.90008 11.35C3.21675 10.4 2.66675 9.45 2.26675 8.50833C1.86675 7.55833 1.66675 6.65 1.66675 5.78333C1.66675 5.21667 1.76675 4.675 1.96675 4.175C2.16675 3.66667 2.48341 3.2 2.92508 2.78333C3.45841 2.25833 4.04175 2 4.65841 2C4.89175 2 5.12508 2.05 5.33341 2.15C5.55008 2.25 5.74175 2.4 5.89175 2.61667L7.82508 5.34167C7.97508 5.55 8.08341 5.74167 8.15841 5.925C8.23341 6.1 8.27508 6.275 8.27508 6.43333C8.27508 6.63333 8.21675 6.83333 8.10008 7.025C7.99175 7.21667 7.83341 7.41667 7.63341 7.61667L7.00008 8.275C6.90841 8.36667 6.86675 8.475 6.86675 8.60833C6.86675 8.675 6.87508 8.73333 6.89175 8.8C6.91675 8.86667 6.94175 8.91667 6.95842 8.96667C7.10842 9.24167 7.36675 9.6 7.73341 10.0333C8.10841 10.4667 8.50841 10.9083 8.94175 11.35C9.39175 11.7917 9.82508 12.2 10.2667 12.575C10.7001 12.9417 11.0584 13.1917 11.3417 13.3417C11.3834 13.3583 11.4334 13.3833 11.4917 13.4083C11.5584 13.4333 11.6251 13.4417 11.7001 13.4417C11.8417 13.4417 11.9501 13.3917 12.0417 13.3L12.6751 12.675C12.8834 12.4667 13.0834 12.3083 13.2751 12.2083C13.4667 12.0917 13.6584 12.0333 13.8667 12.0333C14.0251 12.0333 14.1917 12.0667 14.3751 12.1417C14.5584 12.2167 14.7501 12.325 14.9584 12.4667L17.7167 14.425C17.9334 14.575 18.0834 14.75 18.1751 14.9583C18.2584 15.1667 18.3084 15.375 18.3084 15.6083Z" stroke="#228B22" stroke-width="1.5" stroke-miterlimit="10"/>
</svg>
