<svg width="30" height="24" viewBox="0 0 30 24" fill="none" xmlns="http://www.w3.org/2000/svg">
<path d="M18 6.3335V16.3335C18 20.3335 17 21.3335 13 21.3335H7C3 21.3335 2 20.3335 2 16.3335V6.3335C2 2.3335 3 1.3335 7 1.3335H13C17 1.3335 18 2.3335 18 6.3335Z" stroke="#228B22" stroke-width="1.5" stroke-linecap="round" stroke-linejoin="round"/>
<path fill-rule="evenodd" clip-rule="evenodd" d="M7.25 4.8335C7.25 4.41929 7.58579 4.0835 8 4.0835H12C12.4142 4.0835 12.75 4.41929 12.75 4.8335C12.75 5.24771 12.4142 5.5835 12 5.5835H8C7.58579 5.5835 7.25 5.24771 7.25 4.8335Z" fill="#228B22"/>
<path d="M10 18.4335C10.8561 18.4335 11.55 17.7395 11.55 16.8835C11.55 16.0275 10.8561 15.3335 10 15.3335C9.14397 15.3335 8.45001 16.0275 8.45001 16.8835C8.45001 17.7395 9.14397 18.4335 10 18.4335Z" stroke="#228B22" stroke-width="1.5" stroke-linecap="round" stroke-linejoin="round"/>
</svg>
