<svg width="80" height="80" viewBox="0 0 80 80" fill="none" xmlns="http://www.w3.org/2000/svg">
<path d="M51.4087 9.88544C50.6047 4.25013 45.6995 0 39.9994 0C36.3336 0 32.8522 1.76893 30.6876 4.73357C30.2455 5.33818 30.3777 6.1863 30.9823 6.62843C31.585 7.06898 32.4351 6.93828 32.8764 6.33288C34.5333 4.0658 37.1957 2.71199 39.999 2.71199C44.3584 2.71199 48.1088 5.96066 48.7237 10.268C48.8206 10.9445 49.401 11.4327 50.0648 11.4327C50.128 11.4327 50.1931 11.4279 50.2579 11.4192C50.9991 11.3131 51.5144 10.6263 51.4087 9.88544Z" fill="black"/>
<path d="M70.9925 25.0646L66.9247 18.2848C66.68 17.876 66.2386 17.6266 65.7619 17.6266H61.8638C61.1153 17.6266 60.508 18.2339 60.508 18.9824C60.508 19.7308 61.1153 20.3382 61.8638 20.3382H64.9945L67.4351 24.4059H12.5633L15.0039 20.3382H16.44C17.1884 20.3382 17.7958 19.7308 17.7958 18.9824C17.7958 18.2339 17.1884 17.6266 16.44 17.6266H14.2365C13.7598 17.6266 13.3184 17.876 13.0737 18.2848L9.00593 25.0646C8.75447 25.4841 8.74851 26.0057 8.98885 26.4307C9.22918 26.8558 9.67966 27.1187 10.1687 27.1187H69.8297C70.3187 27.1187 70.7688 26.8558 71.0095 26.4307C71.2503 26.0057 71.2439 25.4833 70.9925 25.0646Z" fill="black"/>
<path d="M64.2337 12.5621C64.0439 12.2558 63.7408 12.0385 63.3904 11.9567L44.9062 7.63346C44.5562 7.55123 44.1876 7.61241 43.8817 7.8015C43.5766 7.99138 43.3589 8.29448 43.2771 8.64485L41.8831 14.6035C41.7123 15.3325 42.1652 16.0618 42.8945 16.2318C43.6235 16.4026 44.3536 15.9498 44.5236 15.2204L45.6089 10.5826L61.4522 14.2885L58.9627 24.9327C58.7919 25.6616 59.2447 26.391 59.9741 26.561C60.0786 26.5852 60.1822 26.5968 60.2847 26.5968C60.9005 26.5968 61.4578 26.1749 61.6028 25.55L64.4014 13.5858C64.484 13.2358 64.4236 12.8672 64.2337 12.5621Z" fill="black"/>
<path d="M40.7164 15.7675L39.481 5.31792C39.4389 4.9608 39.2565 4.63466 38.9737 4.4122C38.6909 4.18974 38.3337 4.08805 37.975 4.13016L15.2963 6.81077C14.5531 6.89896 14.0215 7.57268 14.1093 8.31672L16.1691 25.7451C16.2509 26.4351 16.836 26.9424 17.5141 26.9424C17.567 26.9424 17.6214 26.9388 17.6754 26.9328C18.4183 26.8446 18.9498 26.1709 18.8624 25.4269L16.9616 9.344L36.9474 6.98198L38.0231 16.0849C38.1113 16.8285 38.7818 17.3568 39.5291 17.2726C40.2723 17.1852 40.8038 16.5111 40.7164 15.7675Z" fill="black"/>
<path d="M51.4401 25.2473L48.7487 14.0553C48.6645 13.7061 48.4448 13.4038 48.1386 13.2159C47.8323 13.0296 47.4648 12.9712 47.1133 13.0547L25.27 18.3078C24.5418 18.4826 24.0937 19.2151 24.2685 19.9433L25.6136 25.5373C25.7884 26.2662 26.5209 26.7147 27.2486 26.5388C27.9768 26.364 28.4249 25.6314 28.2501 24.9033L27.2216 20.6274L46.4284 16.009L48.8028 25.8821C48.9517 26.5038 49.5079 26.9209 50.12 26.9209C50.2253 26.9209 50.3318 26.9086 50.4386 26.8828C51.1668 26.7076 51.6149 25.9755 51.4401 25.2473Z" fill="black"/>
<path d="M71.1851 25.6934C71.1478 24.9728 70.5527 24.4071 69.8305 24.4071H10.1695C9.44727 24.4071 8.85219 24.9724 8.81485 25.6934L6.10286 78.5747C6.08379 78.9457 6.21806 79.3088 6.47389 79.5781C6.73011 79.8471 7.08525 80 7.45707 80H72.5417C72.9131 80 73.2687 79.8475 73.5261 79.5781C73.7815 79.3088 73.9158 78.9461 73.8971 78.5747L71.1851 25.6934ZM8.88397 77.288L11.4569 27.1187H68.5415L71.1144 77.288H8.88397Z" fill="black"/>
<path d="M50.1689 29.8303C47.9256 29.8303 46.1011 31.6549 46.1011 33.8981C46.1011 36.1414 47.9256 37.9659 50.1689 37.9659C52.4121 37.9659 54.2367 36.1414 54.2367 33.8981C54.2367 31.6549 52.4121 29.8303 50.1689 29.8303ZM50.1689 35.2543C49.4209 35.2543 48.8131 34.6461 48.8131 33.8985C48.8131 33.1509 49.4212 32.5427 50.1689 32.5427C50.9165 32.5427 51.5247 33.1509 51.5247 33.8985C51.5247 34.6461 50.9165 35.2543 50.1689 35.2543Z" fill="black"/>
<path d="M29.8299 29.8303C27.5867 29.8303 25.7621 31.6549 25.7621 33.8981C25.7621 36.1414 27.5867 37.9659 29.8299 37.9659C32.0732 37.9659 33.8977 36.1414 33.8977 33.8981C33.8977 31.6549 32.0732 29.8303 29.8299 29.8303ZM29.8299 35.2543C29.0823 35.2543 28.4741 34.6461 28.4741 33.8985C28.4741 33.1509 29.0823 32.5427 29.8299 32.5427C30.5776 32.5427 31.1857 33.1509 31.1857 33.8985C31.1857 34.6461 30.5776 35.2543 29.8299 35.2543Z" fill="black"/>
<path d="M50.1689 33.8981H50.0644C49.316 33.8981 48.7086 34.5055 48.7086 35.2539C48.7086 35.439 48.7451 35.6158 48.8131 35.7767V42.7114C48.8131 47.5709 44.8593 51.5251 39.9994 51.5251C35.1395 51.5251 31.1857 47.5713 31.1857 42.7114V35.2543C31.1857 34.5059 30.5783 33.8985 29.8299 33.8985C29.0815 33.8985 28.4741 34.5059 28.4741 35.2543V42.7118C28.4741 49.0669 33.6443 54.2371 39.9994 54.2371C46.3545 54.2371 51.5247 49.0669 51.5247 42.7118V35.2543C51.5247 34.5059 50.9173 33.8981 50.1689 33.8981Z" fill="black"/>
</svg>
