<svg width="130" height="37" viewBox="0 0 130 37" fill="none" xmlns="http://www.w3.org/2000/svg">
<g clip-path="url(#clip0_196_620)">
<g clip-path="url(#clip1_196_620)">
<g clip-path="url(#clip2_196_620)">
<path d="M128.546 36.6473H2.09938C1.36032 36.6473 0.75563 36.0427 0.75563 35.3036V1.70984C0.75563 0.970776 1.36032 0.366089 2.09938 0.366089H128.546C129.285 0.366089 129.89 0.970776 129.89 1.70984V35.3036C129.89 36.0427 129.285 36.6473 128.546 36.6473Z" fill="#3B5998"/>
<path d="M111.823 36.6339H18.9567C9.01969 36.6339 0.889999 28.5042 0.889999 18.5672C0.889999 8.63015 9.01969 0.500458 18.9567 0.500458H111.823C121.76 0.500458 129.89 8.63015 129.89 18.5672C129.89 28.5042 121.76 36.6339 111.823 36.6339Z" fill="#3B5998"/>
<path d="M41.0009 0.500458H40.188V36.6339H41.0009V0.500458Z" fill="#244488"/>
<path d="M61.305 18.5538H57.8516V22.1819H56.7698V13.9581H61.8626V14.845H57.8516V17.6602H61.2983L61.305 18.5538Z" fill="white"/>
<path d="M66.5792 22.1819C66.5187 22.0609 66.4717 21.8459 66.4314 21.5369C65.9476 22.0408 65.3631 22.2961 64.6912 22.2961C64.0866 22.2961 63.5961 22.1281 63.2064 21.7855C62.8234 21.4428 62.6286 21.0128 62.6286 20.4887C62.6286 19.8505 62.8705 19.36 63.3542 19.0039C63.838 18.6545 64.5166 18.4731 65.3967 18.4731H66.4112V17.9961C66.4112 17.6333 66.3037 17.3376 66.082 17.1226C65.867 16.9076 65.5445 16.8001 65.1145 16.8001C64.7383 16.8001 64.4292 16.8942 64.1739 17.0823C63.9186 17.2705 63.7976 17.4989 63.7976 17.7676H62.7495C62.7495 17.4653 62.857 17.1697 63.072 16.8808C63.287 16.5986 63.5826 16.3701 63.9522 16.2089C64.3217 16.0409 64.7316 15.9603 65.175 15.9603C65.8805 15.9603 66.4314 16.135 66.8278 16.4911C67.2242 16.8405 67.4325 17.3309 67.4459 17.9423V20.7575C67.4459 21.3151 67.5198 21.7653 67.6609 22.0945V22.1819H66.5792ZM64.8391 21.3823C65.1683 21.3823 65.4773 21.295 65.773 21.127C66.0686 20.959 66.2769 20.7373 66.4112 20.4686V19.2122H65.5916C64.315 19.2122 63.67 19.5884 63.67 20.3342C63.67 20.6634 63.7775 20.9187 63.9992 21.1001C64.2209 21.295 64.4964 21.3823 64.8391 21.3823Z" fill="white"/>
<path d="M71.5444 21.4428C71.9206 21.4428 72.2431 21.3286 72.5186 21.1069C72.7941 20.8784 72.9486 20.5963 72.9822 20.2603H73.9698C73.9497 20.6097 73.8287 20.9456 73.607 21.2614C73.3853 21.5772 73.0897 21.8325 72.7201 22.0206C72.3506 22.2088 71.9542 22.3028 71.5444 22.3028C70.7112 22.3028 70.0528 22.0274 69.5623 21.4697C69.0719 20.912 68.8233 20.1528 68.8233 19.192V19.0173C68.8233 18.4194 68.9308 17.8953 69.1525 17.4317C69.3675 16.9681 69.6833 16.612 70.0931 16.3567C70.503 16.1014 70.9867 15.9738 71.5444 15.9738C72.2297 15.9738 72.8008 16.182 73.2509 16.5919C73.7011 17.0017 73.943 17.5325 73.9766 18.1909H72.9822C72.9486 17.7945 72.8008 17.472 72.532 17.2167C72.2633 16.9614 71.9341 16.8338 71.5376 16.8338C71.0069 16.8338 70.597 17.0286 70.3014 17.4048C70.0125 17.7878 69.8647 18.3388 69.8647 19.0644V19.2592C69.8647 19.9647 70.0125 20.5022 70.3014 20.8852C70.5903 21.248 71.0069 21.4428 71.5444 21.4428Z" fill="white"/>
<path d="M77.6786 22.2961C76.8522 22.2961 76.1736 22.0273 75.6562 21.4831C75.1389 20.9389 74.8769 20.2133 74.8769 19.2995V19.1047C74.8769 18.5 74.9911 17.9558 75.2262 17.4787C75.4547 17.0017 75.7839 16.6322 76.2005 16.3634C76.617 16.0947 77.0672 15.9603 77.5509 15.9603C78.3437 15.9603 78.9619 16.2223 79.4053 16.7464C79.8487 17.2705 80.0637 18.0162 80.0637 18.9905V19.4272H75.925C75.9384 20.0319 76.1131 20.5156 76.4558 20.8851C76.7984 21.2547 77.2217 21.4428 77.7391 21.4428C78.1086 21.4428 78.4176 21.3689 78.6797 21.2144C78.935 21.0665 79.1567 20.865 79.3516 20.6164L79.9898 21.1136C79.4725 21.8997 78.7066 22.2961 77.6786 22.2961ZM77.5509 16.8136C77.1276 16.8136 76.7783 16.9681 76.4894 17.2772C76.2005 17.5862 76.0258 18.0162 75.9586 18.5672H79.0156V18.4865C78.982 17.9558 78.8409 17.5459 78.5856 17.2503C78.337 16.9614 77.9876 16.8136 77.5509 16.8136Z" fill="white"/>
<path d="M86.4466 19.192C86.4466 20.1259 86.2316 20.8784 85.8016 21.4428C85.3716 22.0072 84.7937 22.2894 84.0748 22.2894C83.3022 22.2894 82.7042 22.0139 82.2876 21.4697L82.2406 22.1752H81.2798V13.508H82.3212V16.7464C82.7445 16.2223 83.3223 15.9603 84.0681 15.9603C84.8072 15.9603 85.3917 16.2425 85.815 16.8002C86.2383 17.3578 86.4533 18.1305 86.4533 19.1047V19.192H86.4466ZM85.3984 19.0778C85.3984 18.3656 85.264 17.8147 84.9886 17.4317C84.7131 17.042 84.3167 16.8472 83.7994 16.8472C83.1073 16.8472 82.6169 17.1697 82.3145 17.808V20.4484C82.637 21.0867 83.1342 21.4092 83.8128 21.4092C84.31 21.4092 84.6997 21.2144 84.9819 20.8247C85.2573 20.435 85.3984 19.8572 85.3984 19.0778Z" fill="white"/>
<path d="M87.4812 19.0711C87.4812 18.4731 87.6022 17.9356 87.8306 17.4586C88.0658 16.9815 88.395 16.612 88.8116 16.35C89.2281 16.088 89.7119 15.9603 90.2494 15.9603C91.0825 15.9603 91.7544 16.2492 92.265 16.827C92.7756 17.4048 93.0376 18.1708 93.0376 19.1248V19.1987C93.0376 19.7967 92.9234 20.3275 92.695 20.7978C92.4666 21.2681 92.1441 21.6376 91.7208 21.8997C91.2975 22.1617 90.8137 22.2961 90.2628 22.2961C89.4364 22.2961 88.7645 22.0072 88.2472 21.4294C87.7365 20.8515 87.4745 20.0923 87.4745 19.145L87.4812 19.0711ZM88.5294 19.192C88.5294 19.8706 88.6839 20.4148 88.9997 20.8247C89.3155 21.2345 89.732 21.4428 90.2628 21.4428C90.7936 21.4428 91.2169 21.2345 91.5259 20.818C91.835 20.4014 91.9962 19.8169 91.9962 19.0711C91.9962 18.3992 91.835 17.8617 91.5192 17.4451C91.2034 17.0286 90.7801 16.8203 90.2494 16.8203C89.732 16.8203 89.3155 17.0286 88.9997 17.4384C88.6906 17.8415 88.5294 18.4328 88.5294 19.192Z" fill="white"/>
<path d="M94.0791 19.0711C94.0791 18.4731 94.2 17.9356 94.4284 17.4586C94.6636 16.9815 94.9928 16.612 95.4094 16.35C95.8259 16.088 96.3097 15.9603 96.8472 15.9603C97.6803 15.9603 98.3522 16.2492 98.8628 16.827C99.3734 17.4048 99.6355 18.1708 99.6355 19.1248V19.1987C99.6355 19.7967 99.5212 20.3275 99.2928 20.7978C99.0644 21.2681 98.7419 21.6376 98.3186 21.8997C97.8953 22.1617 97.4116 22.2961 96.8606 22.2961C96.0342 22.2961 95.3623 22.0072 94.845 21.4294C94.3277 20.8515 94.0723 20.0923 94.0723 19.145L94.0791 19.0711ZM95.1272 19.192C95.1272 19.8706 95.2817 20.4148 95.5975 20.8247C95.9133 21.2345 96.3298 21.4428 96.8606 21.4428C97.3914 21.4428 97.8147 21.2345 98.1237 20.818C98.4328 20.4014 98.5941 19.8169 98.5941 19.0711C98.5941 18.3992 98.4328 17.8617 98.117 17.4451C97.8012 17.0286 97.378 16.8203 96.8472 16.8203C96.3298 16.8203 95.9133 17.0286 95.5975 17.4384C95.2884 17.8415 95.1272 18.4328 95.1272 19.192Z" fill="white"/>
<path d="M102.652 19.3533L102 20.0386V22.1819H100.959V13.508H102V18.7553L102.558 18.0834L104.46 16.0745H105.729L103.351 18.6277L106.005 22.1819H104.782L102.652 19.3533Z" fill="white"/>
<path d="M27.3619 9.87985C27.8255 9.87985 28.2958 9.90673 28.7594 9.92688C29.0617 9.94032 29.3641 9.98063 29.6462 10.0142L29.6261 12.8092C29.5387 12.8092 29.4716 12.8092 29.4044 12.8092C29.0953 12.8092 28.793 12.8025 28.4839 12.8025C28.2555 12.8025 28.0203 12.8025 27.7919 12.8159C27.0528 12.8428 26.5019 13.1183 26.4683 14.0455C26.4414 14.7106 26.428 16.182 26.428 16.2627C26.4683 16.2627 27.2006 16.2627 27.9397 16.2627C28.3092 16.2627 28.672 16.2627 28.9206 16.2627C29.1155 16.2627 29.3036 16.2627 29.5186 16.2627C29.3708 17.3377 29.2297 18.3724 29.0819 19.407H26.4212L26.3608 27.2613H23.1022L23.1626 19.3936H20.5087L20.5356 16.2694H23.2097V16.0342C23.2164 15.4027 23.2097 14.7711 23.2298 14.1463C23.2366 13.7499 23.2634 13.34 23.3306 12.9503C23.512 11.9895 23.9555 11.19 24.755 10.6122C25.4537 10.115 26.2533 9.90001 27.0998 9.87985C27.1872 9.87985 27.2745 9.87985 27.3619 9.87985Z" fill="white"/>
</g>
</g>
</g>
<defs>
<clipPath id="clip0_196_620">
<rect width="129" height="37" fill="white" transform="translate(0.889999)"/>
</clipPath>
<clipPath id="clip1_196_620">
<rect width="129" height="37" fill="white" transform="translate(0.889999)"/>
</clipPath>
<clipPath id="clip2_196_620">
<rect width="129" height="36.2678" fill="white" transform="translate(0.889999 0.366089)"/>
</clipPath>
</defs>
</svg>
