<svg width="130" height="37" viewBox="0 0 130 37" fill="none" xmlns="http://www.w3.org/2000/svg">
<g clip-path="url(#clip0_196_813)">
<g clip-path="url(#clip1_196_813)">
<g clip-path="url(#clip2_196_813)">
<path d="M127.881 36.6776H1.43375C0.694684 36.6776 0.0899963 36.0729 0.0899963 35.3338V1.74008C0.0899963 1.00102 0.694684 0.396332 1.43375 0.396332H127.881C128.62 0.396332 129.224 1.00102 129.224 1.74008V35.3338C129.224 36.0729 128.62 36.6776 127.881 36.6776Z" fill="#E14B33"/>
<path d="M111.023 36.5298H18.1567C8.21968 36.5298 0.0899963 28.4001 0.0899963 18.4631C0.0899963 8.52602 8.21968 0.396332 18.1567 0.396332H111.023C120.96 0.396332 129.09 8.52602 129.09 18.4631C129.09 28.4001 120.96 36.5298 111.023 36.5298Z" fill="#E14B33"/>
<path d="M40.2009 0.396332H39.388V36.5298H40.2009V0.396332Z" fill="#C2412D"/>
<path d="M62.0369 20.996C61.7547 21.3924 61.3717 21.6948 60.8745 21.8896C60.3774 22.0845 59.7928 22.1853 59.1344 22.1853C58.4625 22.1853 57.8713 22.0307 57.3472 21.7149C56.8231 21.3992 56.4267 20.9557 56.1445 20.3712C55.8624 19.7934 55.7145 19.1215 55.7078 18.3556V17.6367C55.7078 16.4004 55.9967 15.4396 56.5745 14.7543C57.1524 14.0757 57.9653 13.7331 59.0135 13.7331C59.8735 13.7331 60.5655 13.9548 61.0828 14.3915C61.6069 14.8282 61.9227 15.4531 62.0436 16.2593H60.9619C60.7603 15.1709 60.1086 14.6199 59.0202 14.6199C58.2945 14.6199 57.7436 14.8753 57.3674 15.3859C56.9911 15.8965 56.803 16.6356 56.803 17.6031V18.2749C56.803 19.1954 57.0113 19.9345 57.4345 20.4787C57.8578 21.0229 58.4289 21.2984 59.1478 21.2984C59.5577 21.2984 59.907 21.2513 60.2161 21.164C60.5252 21.0767 60.7738 20.9221 60.9753 20.7071V18.8662H59.0739V17.9793H62.0369V20.996Z" fill="white"/>
<path d="M63.4008 18.967C63.4008 18.369 63.515 17.8315 63.7502 17.3545C63.9853 16.8774 64.3145 16.5079 64.7311 16.2459C65.1477 15.9838 65.6314 15.8562 66.1689 15.8562C67.002 15.8562 67.6739 16.1451 68.1845 16.7229C68.6952 17.3007 68.9572 18.0666 68.9572 19.0207V19.0946C68.9572 19.6926 68.843 20.2234 68.6145 20.6937C68.3861 21.164 68.0636 21.5335 67.6403 21.7955C67.217 22.0576 66.7266 22.192 66.1824 22.192C65.3559 22.192 64.6841 21.903 64.1667 21.3252C63.6561 20.7474 63.3941 19.9882 63.3941 19.0409L63.4008 18.967ZM64.4556 19.0879C64.4556 19.7665 64.6102 20.3107 64.9259 20.7205C65.2417 21.1304 65.6583 21.3387 66.1891 21.3387C66.7199 21.3387 67.1431 21.1304 67.4522 20.7138C67.7613 20.2973 67.9225 19.7127 67.9225 18.967C67.9225 18.2951 67.7613 17.7576 67.4455 17.341C67.1297 16.9245 66.7064 16.7162 66.1756 16.7162C65.6583 16.7162 65.2417 16.9245 64.9259 17.3343C64.6102 17.7374 64.4556 18.3287 64.4556 19.0879Z" fill="white"/>
<path d="M69.9986 18.967C69.9986 18.369 70.1128 17.8315 70.348 17.3545C70.5831 16.8774 70.9124 16.5079 71.3289 16.2459C71.7455 15.9838 72.2292 15.8562 72.7667 15.8562C73.5998 15.8562 74.2717 16.1451 74.7823 16.7229C75.293 17.3007 75.555 18.0666 75.555 19.0207V19.0946C75.555 19.6926 75.4408 20.2234 75.2123 20.6937C74.9839 21.164 74.6614 21.5335 74.2381 21.7955C73.8148 22.0576 73.3244 22.192 72.7802 22.192C71.9538 22.192 71.2819 21.903 70.7645 21.3252C70.2472 20.7474 69.9919 19.9882 69.9919 19.0409L69.9986 18.967ZM71.0467 19.0879C71.0467 19.7665 71.2013 20.3107 71.517 20.7205C71.8328 21.1304 72.2494 21.3387 72.7802 21.3387C73.3109 21.3387 73.7342 21.1304 74.0433 20.7138C74.3523 20.2973 74.5136 19.7127 74.5136 18.967C74.5136 18.2951 74.3523 17.7576 74.0366 17.341C73.7208 16.9245 73.2975 16.7162 72.7667 16.7162C72.2494 16.7162 71.8328 16.9245 71.517 17.3343C71.208 17.7374 71.0467 18.3287 71.0467 19.0879Z" fill="white"/>
<path d="M76.6233 18.9737C76.6233 18.0196 76.845 17.2671 77.2817 16.7027C77.7252 16.1384 78.303 15.8562 79.0353 15.8562C79.7811 15.8562 80.3589 16.1182 80.7822 16.649L80.836 15.9704H81.79V21.9299C81.79 22.7227 81.5549 23.3409 81.0845 23.7977C80.6142 24.2546 79.9894 24.483 79.1966 24.483C78.7531 24.483 78.3231 24.389 77.9066 24.2009C77.4833 24.0127 77.1608 23.7574 76.9391 23.4282L77.4833 22.8034C77.9335 23.3543 78.4777 23.6298 79.1227 23.6298C79.6333 23.6298 80.0297 23.4887 80.3119 23.1998C80.5941 22.9109 80.7352 22.5077 80.7352 21.9904V21.4663C80.3186 21.9501 79.7475 22.192 79.0219 22.192C78.3097 22.192 77.7252 21.903 77.2884 21.3252C76.845 20.7474 76.6233 19.968 76.6233 18.9737ZM77.6714 19.0879C77.6714 19.7799 77.8125 20.3174 78.0947 20.7138C78.3769 21.1102 78.7733 21.3051 79.2839 21.3051C79.9424 21.3051 80.4261 21.0027 80.7352 20.4048V17.6165C80.4127 17.032 79.9356 16.743 79.2974 16.743C78.7867 16.743 78.3903 16.9379 78.1081 17.3343C77.8125 17.7307 77.6714 18.3152 77.6714 19.0879Z" fill="white"/>
<path d="M84.4909 22.0777H83.4495V13.4038H84.4909V22.0777Z" fill="white"/>
<path d="M88.6969 22.192C87.8705 22.192 87.1919 21.9232 86.6745 21.379C86.1572 20.8348 85.8952 20.1091 85.8952 19.1954V19.0005C85.8952 18.3959 86.0094 17.8516 86.2446 17.3746C86.473 16.8976 86.8022 16.528 87.2188 16.2593C87.6353 15.9905 88.0855 15.8562 88.5692 15.8562C89.3621 15.8562 89.9802 16.1182 90.4236 16.6423C90.867 17.1663 91.0821 17.9121 91.0821 18.8863V19.323H86.9433C86.9567 19.9277 87.1314 20.4115 87.4741 20.781C87.8167 21.1505 88.24 21.3387 88.7574 21.3387C89.1269 21.3387 89.436 21.2648 89.698 21.1102C89.9533 20.9624 90.175 20.7609 90.3699 20.5123L91.0081 21.0095C90.4908 21.7955 89.7249 22.192 88.6969 22.192ZM88.5692 16.7095C88.146 16.7095 87.7966 16.864 87.5077 17.173C87.2188 17.4821 87.0441 17.9121 86.9769 18.463H90.0339V18.3824C90.0003 17.8516 89.8592 17.4418 89.6039 17.1462C89.3486 16.8505 89.006 16.7095 88.5692 16.7095Z" fill="white"/>
<path d="M19.7356 12.0399C20.8241 12.0534 21.8386 12.3221 22.7725 12.873C23.3973 13.2291 23.7534 13.5987 23.908 13.7062C23.2697 14.3377 22.6516 14.9559 22.02 15.574C21.5564 15.1709 21.0391 14.8013 20.1455 14.6669C19.9574 14.6401 19.7759 14.6266 19.5945 14.6266C17.8006 14.6266 16.2956 15.9234 15.8925 17.6232C15.7984 18.0062 15.7716 18.3959 15.8052 18.7855C15.9395 20.3644 17.0011 21.6612 18.4322 22.1248C18.795 22.239 19.1713 22.2927 19.5542 22.2927C19.6416 22.2927 19.7289 22.2927 19.823 22.286C20.4949 22.2457 21.1264 22.0643 21.6975 21.688C22.6583 21.0363 22.9741 20.0084 22.9741 19.753C22.7927 19.753 19.6953 19.753 19.5341 19.753C19.5341 19.6657 19.5475 18.0599 19.5542 17.2738L19.5609 17.1663C21.5766 17.1663 23.5855 17.1663 25.6011 17.1663C25.9236 19.0476 25.6347 21.0363 24.4589 22.5816C23.6459 23.6499 22.5709 24.3218 21.2809 24.6577C20.7098 24.8055 20.132 24.8794 19.5475 24.8794C19.4199 24.8794 19.2989 24.8727 19.1713 24.866C17.9149 24.7921 16.7659 24.3957 15.7514 23.6499C14.4413 22.6891 13.6216 21.3991 13.2722 19.8135C13.1445 19.2357 13.1042 18.6646 13.1513 18.0868C13.2453 16.7162 13.7224 15.4866 14.6025 14.4184C15.5163 13.303 16.6719 12.5707 18.0627 12.2213C18.412 12.1273 18.7681 12.0735 19.1242 12.0534C19.3325 12.0534 19.5341 12.0399 19.7356 12.0399Z" fill="white"/>
<path d="M31.2113 15.0163V15.0768L31.1978 17.2604H33.368H33.4352V17.3209L33.4285 18.9468L33.4217 19.014H33.3546H31.1844L31.1642 21.1909V21.2513H31.1038H29.4711H29.4106V21.1909L29.4308 19.014H27.2539H27.1867V18.9468L27.2002 17.3209V17.2604H27.2674H29.4442L29.4577 15.0768V15.0163H29.5181H31.1508H31.2113Z" fill="white"/>
</g>
</g>
</g>
<defs>
<clipPath id="clip0_196_813">
<rect width="129" height="37" fill="white" transform="translate(0.0899963)"/>
</clipPath>
<clipPath id="clip1_196_813">
<rect width="129" height="37" fill="white" transform="translate(0.0899963)"/>
</clipPath>
<clipPath id="clip2_196_813">
<rect width="129" height="36.3552" fill="white" transform="translate(0.0899963 0.322418)"/>
</clipPath>
</defs>
</svg>
