<svg width="30" height="29" viewBox="0 0 30 29" fill="none" xmlns="http://www.w3.org/2000/svg">
<g clip-path="url(#clip0_193_532)">
<g clip-path="url(#clip1_193_532)">
<path d="M14.5 5C11.743 5 9.5 7.243 9.5 10C9.5 12.757 11.743 15 14.5 15C17.257 15 19.5 12.757 19.5 10C19.5 7.243 17.257 5 14.5 5ZM14.5 13C12.846 13 11.5 11.654 11.5 10C11.5 8.346 12.846 7 14.5 7C16.154 7 17.5 8.346 17.5 10C17.5 11.654 16.154 13 14.5 13ZM23.5 24V23C23.5 19.141 20.359 16 16.5 16H12.5C8.64 16 5.5 19.141 5.5 23V24H7.5V23C7.5 20.243 9.743 18 12.5 18H16.5C19.257 18 21.5 20.243 21.5 23V24H23.5Z" fill="#151515"/>
</g>
</g>
<defs>
<clipPath id="clip0_193_532">
<rect width="24" height="24" fill="white" transform="translate(5.5 5)"/>
</clipPath>
<clipPath id="clip1_193_532">
<rect width="18" height="19" fill="white" transform="translate(5.5 5)"/>
</clipPath>
</defs>
</svg>
